{"title":"Noah (2014) DVDRip XviD-MAX","uid":10491238,"size":1812695083,"categoryP":"video","categoryS":"movies","magnet":"?xt=urn:btih:0a66f03f5d074b832eb198bd1072e8adc5a63f18&amp;dn=Noah+%282014%29+DVDRip+XviD-MAX&amp;tr=udp%3A%2F%2Ftracker.openbittorrent.com%3A80&amp;tr=udp%3A%2F%2Fopen.demonii.com%3A1337&amp;tr=udp%3A%2F%2Ftracker.coppersurfer.tk%3A6969&amp;tr=udp%3A%2F%2Fexodus.desync.com%3A6969","seeders":75,"leechers":24,"uploader":"extremezone","files":-1,"time":1404550355,"description":" &lt;a href=&quot;http://i.imgbox.com/GZPrLF5B.jpg&quot; rel=&quot;nofollow&quot; target=&quot;_NEW&quot;&gt;http://i.imgbox.com/GZPrLF5B.jpg&lt;/a&gt;\n\nScreens:\n &lt;a href=&quot;\nhttp://i.imgbox.com/MmvUUkRf.jpg&quot; rel=&quot;nofollow&quot; target=&quot;_NEW&quot;&gt;\nhttp://i.imgbox.com/MmvUUkRf.jpg&lt;/a&gt; &lt;a href=&quot;\nhttp://i.imgbox.com/OhaNDDGB.jpg&quot; rel=&quot;nofollow&quot; target=&quot;_NEW&quot;&gt;\nhttp://i.imgbox.com/OhaNDDGB.jpg&lt;/a&gt; &lt;a href=&quot;\nhttp://i.imgbox.com/mIHqbWTh.jpg&quot; rel=&quot;nofollow&quot; target=&quot;_NEW&quot;&gt;\nhttp://i.imgbox.com/mIHqbWTh.jpg&lt;/a&gt; &lt;a href=&quot;\nhttp://i.imgbox.com/OnOb7m9c.jpg&quot; rel=&quot;nofollow&quot; target=&quot;_NEW&quot;&gt;\nhttp://i.imgbox.com/OnOb7m9c.jpg&lt;/a&gt;\n\nScreenCaps:\n &lt;a href=&quot;\nhttp://i.imgbox.com/3cVcCVbz.jpeg&quot; rel=&quot;nofollow&quot; target=&quot;_NEW&quot;&gt;\nhttp://i.imgbox.com/3cVcCVbz.jpeg&lt;/a&gt;\n\nNoah (2014) DVDRip XviD-MAX\nFormat                                   : AVI\nFormat/Info                              : Audio Video Interleave\nFormat profile                           : OpenDML\nFormat settings                          : rec\nFile size                                : 1.68 GiB\nDuration                                 : 2h 17mn\nOverall bit rate                         : 1 744 Kbps\nWriting application                      : VirtualDubMod 1.5.10.2 (build 2542/release)\nWriting library                          : VirtualDubMod build 2542/release\nOriginal source form                     : MAX TORRENTZ\nCopyright                                : SIGISMUNT\n\nVideo\nID                                       : 0\nFormat                                   : MPEG-4 Visual\nFormat profile                           : Advanced Simple@L5\nFormat settings, BVOP                    : 2\nFormat settings, QPel                    : No\nFormat settings, GMC                     : No warppoints\nFormat settings, Matrix                  : Default (H.263)\nCodec ID                                 : XVID\nCodec ID/Hint                            : XviD\nDuration                                 : 2h 17mn\nBit rate                                 : 1 291 Kbps\nWidth                                    : 720 pixels\nHeight                                   : 384 pixels\nDisplay aspect ratio                     : 1.85:1\nFrame rate                               : 23.976 fps\nColor space                              : YUV\nChroma subsampling                       : 4:2:0\nBit depth                                : 8 bits\nScan type                                : Progressive\nCompression mode                         : Lossy\nBits/(Pixel*Frame)                       : 0.195\nStream size                              : 1.24 GiB (74%)\nWriting library                          : XviD 1.2.1 (UTC 2008-12-04)\n\nAudio\nID                                       : 1\nFormat                                   : AC-3\nFormat/Info                              : Audio Coding 3\nMode extension                           : CM (complete main)\nFormat settings, Endianness              : Big\nCodec ID                                 : 2000\nDuration                                 : 2h 17mn\nBit rate mode                            : Constant\nBit rate                                 : 448 Kbps\nChannel(s)                               : 6 channels\nChannel positions                        : Front: L C R, Side: L R, LFE\nSampling rate                            : 48.0 KHz\nBit depth                                : 16 bits\nCompression mode                         : Lossy\nStream size                              : 442 MiB (26%)\nAlignment                                : Aligned on interleaves\nInterleave, duration                     : 64 ms (1.53 video frames)\nInterleave, preload duration             : 192 ms\n\nSource: DVD (perfect a/v/sync quality,sample included)\nThis torrent is not seedbox supported,please seed it to the MAX\n\nUploader Note: If you think image it's a little dark then VLC-Ctrl+E-Video Effects-\n-Image adjust-Brightness-Close, simple as 1,2,3 so no complaints about this please,thanks\n\nNote: If you have something to offer as early releases,seedboxes,\ncontact us on &lt;a href=&quot; http://torentz.3xforum.ro&quot; rel=&quot;nofollow&quot; target=&quot;_NEW&quot;&gt; http://torentz.3xforum.ro&lt;/a&gt; or \n\nNoah (2014) DVDRip XviD-MAX Torrent Free Download\n\nHow To Get Your MAXSPEED (uTorrent)\n\nTorrent Client - Preferences - Bandwidth - Number of connections - Set aprox. 500 for each\nTorrent Client - Preferences - BiTorrent - Protocol Encryption - Forced\nBandwidth Allocation - High (Set download/upload limit - Unlimited)\nStop Other Active Torrents - Start downloading and wait for connections.\nEnjoy and Seed for at least 1:1 ratio. Don't forget to say thanks/leave reviews.\nIf screens/Caps image host is dead googlesearch &quot;release name&quot;+&quot;screens&quot; or &quot;sample&quot;.\nGreets to all actual/future p2p/scene QUALITY groups and affiliate websites.\nDon't trust IMDb robot or bad ratings,always watch some trailers first.\nIgnore stupid comments/fake/mislabeled/no-DVDrips/CAM/TS/RAR uploads.\nPlease spread this release/torrent to your friends/forums/etc.\nIf you need translation subs visit some subtitles sites.\nReport if you see online streaming or other spam links.\nRecommended movie player VLC PLAYER.","torrent":{"xt":"urn:btih:0a66f03f5d074b832eb198bd1072e8adc5a63f18","amp;dn":"Noah+%282014%29+DVDRip+XviD-MAX","amp;tr":["udp%3A%2F%2Ftracker.openbittorrent.com%3A80","udp%3A%2F%2Fopen.demonii.com%3A1337","udp%3A%2F%2Ftracker.coppersurfer.tk%3A6969","udp%3A%2F%2Fexodus.desync.com%3A6969"],"infoHash":"0a66f03f5d074b832eb198bd1072e8adc5a63f18","infoHashBuffer":{"type":"Buffer","data":[10,102,240,63,93,7,75,131,46,177,152,189,16,114,232,173,197,166,63,24]},"announce":[],"urlList":[]}}